<svg width="40" height="40" viewBox="0 0 40 40" fill="none" xmlns="http://www.w3.org/2000/svg">
<path fill-rule="evenodd" clip-rule="evenodd" d="M1 20C1 30.4934 9.50659 39 20 39C30.4934 39 39 30.4934 39 20C39 9.50659 30.4934 1 20 1C9.50659 1 1 9.50659 1 20ZM20 0C8.95431 0 0 8.95431 0 20C0 31.0457 8.95431 40 20 40C31.0457 40 40 31.0457 40 20C40 8.95431 31.0457 0 20 0Z" fill="white"/>
<path fill-rule="evenodd" clip-rule="evenodd" d="M26.6902 21.487H25.0017L28.4535 26.9112H21.5769V29.7H17.423V26.9114H10.5465L13.9983 21.4872H12.3098L15.7616 16.063H14.088L19.5 7.55877L24.912 16.0628H23.2384L26.6902 21.487ZM23.0631 15.0295L19.5 9.43051L15.9368 15.0295H17.6105L14.1586 20.4536H15.8471L12.3953 25.8777H18.4162V28.6665H20.5837V25.8777H26.6046L23.1528 20.4536H24.8413L21.3895 15.0295H23.0631Z" fill="white"/>
</svg>
