<svg width="21" height="14" viewBox="0 0 21 14" fill="none" xmlns="http://www.w3.org/2000/svg">
<g id="&#208;&#159;&#208;&#190;&#209;&#135;&#209;&#130;&#208;&#176; 3">
<path id="Vector" d="M1.78182 0C0.793851 0 0 0.812528 0 1.8047V12.1875C0 13.1797 0.793851 14 1.78182 14H18.5818C19.5698 14 20.3636 13.1797 20.3636 12.1875V1.8047C20.3636 0.812528 19.5698 0 18.5818 0H1.78182ZM1.78182 0.5H18.5818C18.8999 0.5 19.1863 0.624972 19.4091 0.820297L10.9852 8.6797C10.5186 9.1149 9.86158 9.10685 9.39431 8.67195L0.954545 0.820374C1.17737 0.625049 1.46374 0.5 1.78182 0.5ZM0.652273 1.22655L6.94431 7.08595L0.835215 13.0703C0.63364 12.8389 0.509091 12.528 0.509091 12.1875V1.8047C0.509091 1.59198 0.567255 1.40197 0.652273 1.22655ZM19.7114 1.22655C19.7964 1.40197 19.8545 1.59198 19.8545 1.8047V12.1875C19.8545 12.528 19.73 12.8389 19.5284 13.0703L13.4352 7.07812L19.7114 1.22655ZM13.0693 7.42188L19.1148 13.375C18.9516 13.4526 18.774 13.5 18.5818 13.5H1.78182C1.58961 13.5 1.41204 13.4526 1.24885 13.375L7.31024 7.4297L9.0443 9.03905C9.69263 9.6426 10.6873 9.6433 11.3352 9.03905L13.0693 7.42188Z" fill="#1C1C1C"/>
</g>
</svg>
