<svg width="17" height="18" viewBox="0 0 17 18" fill="none" xmlns="http://www.w3.org/2000/svg">
<g id="&#208;&#162;&#208;&#181;&#208;&#187;&#208;&#181;&#209;&#132;&#208;&#190;&#208;&#189; 3">
<path id="Vector" d="M15.4868 16.7018C15.3619 16.8131 15.2413 16.9206 15.1319 17.0251C14.8061 17.3358 14.2519 17.5 13.5288 17.5C11.405 17.5 7.83661 16.1176 4.64975 13.0265C2.73529 11.1345 1.26549 8.92768 0.511044 6.8126C-0.18047 4.87365 -0.169523 3.29777 0.539774 2.59692C0.682844 2.45537 0.839403 2.27789 1.00534 2.08978C1.62962 1.38141 2.40674 0.5 3.40472 0.5C4.03662 0.5 4.65092 0.861525 5.23083 1.57453C7.19044 3.98258 6.92462 4.60405 5.59222 5.90029C5.51795 5.97251 5.44036 6.04802 5.36003 6.1274C5.02815 6.45551 5.85276 8.24325 7.67164 10.0408C8.99193 11.3454 10.5581 12.3291 11.3147 12.3291C11.4904 12.3291 11.5469 12.2739 11.5654 12.2558C11.6487 12.1745 11.7292 12.0924 11.8084 12.012C12.2894 11.5231 12.7868 11.0175 13.5395 11.0175C14.2166 11.0175 14.9814 11.4416 15.9463 12.3521C16.6646 13.0302 17.0092 13.6851 16.9998 14.3542C16.9855 15.3639 16.1545 16.1057 15.4868 16.7018ZM15.4063 12.9106C14.6073 12.1565 13.9967 11.7898 13.5395 11.7898C13.1377 11.7898 12.833 12.0787 12.3692 12.5503C12.2865 12.6345 12.2022 12.72 12.1153 12.805C11.9769 12.9402 11.7255 13.1016 11.3147 13.1016C10.1742 13.1016 8.38563 11.8386 7.1189 10.587C6.281 9.75907 5.52792 8.80215 5.05238 7.96148C4.42107 6.84524 4.33859 6.04436 4.80729 5.58105C4.88918 5.50014 4.96814 5.42327 5.04398 5.34969C6.11095 4.31166 6.30309 4.12472 4.62161 2.0585C4.19747 1.53688 3.788 1.27249 3.40472 1.27249C2.76246 1.27249 2.14229 1.97623 1.59483 2.59712C1.4199 2.79545 1.25474 2.98278 1.09251 3.14327C0.714508 3.51657 0.601927 4.74387 1.24829 6.55594C1.96462 8.56441 3.36895 10.6683 5.20015 12.478C8.22692 15.4135 11.5641 16.7275 13.529 16.7275C14.2414 16.7275 14.5076 16.5469 14.5889 16.4693C14.7042 16.3592 14.8313 16.2459 14.9628 16.1284C15.5466 15.607 16.2086 15.0163 16.218 14.3432C16.2241 13.907 15.951 13.4249 15.4063 12.9106Z" fill="#1C1C1C"/>
</g>
</svg>
